<?xml version="1.0" encoding="utf-8"?>
<!-- Generator: Adobe Illustrator 16.0.0, SVG Export Plug-In . SVG Version: 6.00 Build 0)  -->
<!DOCTYPE svg PUBLIC "-//W3C//DTD SVG 1.1//EN" "http://www.w3.org/Graphics/SVG/1.1/DTD/svg11.dtd">
<svg version="1.1" id="Layer_1" xmlns="http://www.w3.org/2000/svg" xmlns:xlink="http://www.w3.org/1999/xlink" x="0px" y="0px"
	 width="54px" height="120px" viewBox="0 0 54 120" enable-background="new 0 0 54 120" xml:space="preserve">
<g>
	<path fill="#FFFFFF" d="M32.812,18.513c0.25,0,0.471-0.22,0.471-0.471V3.604c0-0.251-0.221-0.471-0.471-0.471H21.188
		c-0.251,0-0.472,0.22-0.472,0.471v14.438c0,0.25,0.22,0.471,0.472,0.471H32.812z"/>
	<path fill="#FFFFFF" d="M43.42,69.178c0.759-4.01,1.543-8.158-0.636-10.786c-1.629-1.968-5.037-3.248-9.973-3.785v20.079
		c2.511,1.81,4.152,4.752,4.152,8.082c0,3.686-2.008,6.896-4.982,8.621c-1.468,0.849-3.166,1.344-4.983,1.344
		c-1.816,0-3.515-0.495-4.982-1.345c-2.975-1.724-4.981-4.935-4.981-8.62c0-3.33,1.64-6.272,4.151-8.082V54.606
		c-4.937,0.537-8.343,1.817-9.974,3.785c-2.178,2.628-1.394,6.776-0.635,10.787c0.372,1.966,0.724,3.824,0.724,5.544
		c0,4.297-1.897,8.402-3.731,12.373C5.667,91.215,3.7,95.475,3.7,100.057c0,4.155,0.4,8.41,3.301,11.377
		c3.362,3.438,10.09,5.182,19.999,5.182c9.909,0,16.637-1.743,19.999-5.182c2.901-2.967,3.301-7.222,3.301-11.377
		c0-4.582-1.967-8.842-3.87-12.959c-1.834-3.973-3.731-8.078-3.731-12.375C42.697,73.003,43.048,71.145,43.42,69.178z
		 M33.642,101.09h-1.66h-9.965h-1.66c-0.914,0-1.661-0.748-1.661-1.66c0-0.914,0.748-1.661,1.661-1.661h1.66h9.965h1.66
		c0.912,0,1.66,0.747,1.66,1.661C35.302,100.342,34.554,101.09,33.642,101.09z"/>
	<path fill="#FFFFFF" d="M24.508,52.817v1.552V73.13c0.798-0.204,1.629-0.326,2.491-0.326s1.693,0.121,2.491,0.326V54.368v-1.551
		V51.26V21.364h-4.981V51.26V52.817z"/>
	<path fill="#262626" d="M32.812,51.481V21.364c1.826,0,3.32-1.494,3.32-3.321v-1.661h0.832c0.912,0,1.66-0.748,1.66-1.661v-0.83
		c0-0.914-0.748-1.661-1.66-1.661h-0.832V9.739h0.832c0.912,0,1.66-0.747,1.66-1.66V7.249c0-0.914-0.748-1.661-1.66-1.661h-0.832
		V3.604c0-1.827-1.494-3.321-3.32-3.321H21.188c-1.827,0-3.322,1.495-3.322,3.321v1.983h-0.832c-0.913,0-1.66,0.748-1.66,1.661
		v0.831c0,0.914,0.747,1.66,1.66,1.66h0.832v2.491h-0.832c-0.913,0-1.66,0.747-1.66,1.661v0.83c0,0.913,0.747,1.661,1.66,1.661
		h0.832v1.661c0,1.827,1.495,3.321,3.321,3.321v30.118C0.181,53.578,8.199,67.598,8.199,74.723c0,7.714-7.601,15.426-7.601,25.334
		c0,9.906,2.359,19.66,26.401,19.66c24.043,0,26.403-9.754,26.403-19.66c0-9.908-7.604-17.62-7.604-25.334
		C45.798,67.598,53.818,53.578,32.812,51.481z M20.716,18.042V3.604c0-0.251,0.22-0.471,0.472-0.471h11.625
		c0.25,0,0.471,0.22,0.471,0.471v14.438c0,0.25-0.221,0.471-0.471,0.471H21.188C20.936,18.513,20.716,18.293,20.716,18.042z
		 M29.49,21.364V51.26v1.557v1.551V73.13c-0.798-0.205-1.629-0.326-2.491-0.326s-1.692,0.122-2.491,0.326V54.369v-1.552V51.26
		V21.364H29.49z M46.428,87.098c1.903,4.117,3.87,8.377,3.87,12.959c0,4.155-0.399,8.41-3.301,11.377
		c-3.361,3.438-10.09,5.182-19.999,5.182c-9.908,0-16.637-1.743-19.999-5.182C4.1,108.467,3.7,104.212,3.7,100.057
		c0-4.582,1.967-8.842,3.871-12.961c1.834-3.971,3.731-8.076,3.731-12.373c0-1.72-0.352-3.578-0.724-5.544
		c-0.758-4.011-1.542-8.159,0.635-10.787c1.63-1.968,5.037-3.248,9.974-3.785v20.079c-2.511,1.81-4.151,4.752-4.151,8.082
		c0,3.686,2.007,6.896,4.981,8.62c1.467,0.85,3.166,1.345,4.982,1.345c1.817,0,3.515-0.495,4.983-1.344
		c2.975-1.725,4.982-4.936,4.982-8.621c0-3.33-1.642-6.272-4.152-8.082V54.606c4.936,0.537,8.344,1.817,9.973,3.785
		c2.179,2.628,1.395,6.776,0.636,10.786c-0.372,1.967-0.724,3.825-0.724,5.545C42.697,79.02,44.594,83.125,46.428,87.098z"/>
	<path fill="#262626" d="M33.642,97.769h-1.66h-9.965h-1.66c-0.914,0-1.661,0.747-1.661,1.661c0,0.912,0.748,1.66,1.661,1.66h1.66
		h9.965h1.66c0.912,0,1.66-0.748,1.66-1.66C35.302,98.516,34.554,97.769,33.642,97.769z"/>
</g>
</svg>
